/* XPM */
static char *_dbe9370455f4304d368313e7aeb24f4cUJxNEWVtb7sAqbv[] = {
/* columns rows colors chars-per-pixel */
"64 64 160 2 ",
"   c #062005",
".  c #0E2707",
"X  c #0D2B07",
"o  c #0F2E09",
"O  c #11270C",
"+  c #122C0B",
"@  c #0F310B",
"#  c #14340D",
"$  c #19360F",
"%  c #143B0D",
"&  c #1A3A0E",
"*  c #163512",
"=  c #1B3511",
"-  c #163B12",
";  c #1B3C13",
":  c #1D3E18",
">  c #223D16",
",  c #213F19",
"<  c #16430B",
"1  c #1B450F",
"2  c #1B4B0E",
"3  c #1E510F",
"4  c #164011",
"5  c #1D4313",
"6  c #1E4A13",
"7  c #1F4519",
"8  c #1E4B19",
"9  c #1E5112",
"0  c #224415",
"q  c #284616",
"w  c #234C15",
"e  c #284B16",
"r  c #23441A",
"t  c #29451C",
"y  c #244C1A",
"u  c #294D1B",
"i  c #235315",
"p  c #295316",
"a  c #255A15",
"s  c #295B16",
"d  c #25531A",
"f  c #2B541C",
"g  c #265A1A",
"h  c #2C5B1D",
"j  c #32541E",
"k  c #315D1D",
"l  c #266317",
"z  c #2A6116",
"x  c #276018",
"c  c #2C631C",
"v  c #2D6A1D",
"b  c #306017",
"n  c #31641D",
"m  c #316A1E",
"M  c #31711F",
"N  c #2B4E21",
"B  c #275520",
"V  c #2C5421",
"C  c #2E5C21",
"Z  c #325522",
"A  c #325B24",
"S  c #325926",
"D  c #325925",
"F  c #365B26",
"G  c #375A26",
"H  c #305D25",
"J  c #325C25",
"K  c #325C22",
"L  c #3D5F21",
"P  c #395F26",
"I  c #3A5E23",
"U  c #355D2A",
"Y  c #3B5E29",
"T  c #3B5E28",
"R  c #2D6621",
"E  c #2E6121",
"W  c #2F6921",
"Q  c #336023",
"!  c #326322",
"~  c #336322",
"^  c #356122",
"/  c #346123",
"(  c #366323",
")  c #306721",
"_  c #326720",
"`  c #336422",
"'  c #316024",
"]  c #326225",
"[  c #316226",
"{  c #316724",
"}  c #336525",
"|  c #376424",
" . c #346527",
".. c #376727",
"X. c #336323",
"o. c #396324",
"O. c #3B6027",
"+. c #386427",
"@. c #3A6626",
"#. c #396526",
"$. c #326820",
"%. c #366923",
"&. c #326924",
"*. c #336A24",
"=. c #336B24",
"-. c #346B23",
";. c #3C6923",
":. c #396D23",
">. c #386B24",
",. c #396927",
"<. c #396E24",
"1. c #3D6D27",
"2. c #3F6C26",
"3. c #3B6C25",
"4. c #376128",
"5. c #366329",
"6. c #3D6228",
"7. c #3D632A",
"8. c #366C2A",
"9. c #366D29",
"0. c #3B6929",
"q. c #3D6A2A",
"w. c #386D29",
"e. c #3E6E29",
"r. c #3F6C2B",
"t. c #3D6F2D",
"y. c #3D6C2A",
"u. c #367024",
"i. c #357123",
"p. c #3A7424",
"a. c #3E7926",
"s. c #377128",
"d. c #36702A",
"f. c #3A7728",
"g. c #3C722B",
"h. c #3E792B",
"j. c #3F7930",
"k. c #416626",
"l. c #406C25",
"z. c #436928",
"x. c #416A29",
"c. c #437327",
"v. c #427225",
"b. c #407825",
"n. c #41752B",
"m. c #42752B",
"M. c #41752F",
"N. c #42762F",
"B. c #42742D",
"V. c #407A28",
"C. c #427B2D",
"Z. c #456B33",
"A. c #417032",
"S. c #407B30",
"D. c #44822E",
"F. c #468231",
"G. c #498532",
"H. c #4F8138",
"J. c #508739",
"K. c #508739",
/* pixels */
"h f r p ; + w / e.$ S D % d u d i y g d d r d.} 7 8.8.f $ 6 h d c f > d > + 6 ! 1.$ D D % u u d w y g d g r d./ r 8.8.d % 6 k d ",
"a h C e > c.k.y ! w G u ; 0.G c C 5 y * ; h C O.u./ 7 5 7 v p d z h ! e > c.z.y ^ w G y 5 0.G v C 7 y # = C E 4.>.! 5 7 7 c d p ",
"w i g O.^ f.o.e.t.j s 0 $ n n h =.7 5 d f K p J e 6 d d #.m.) w 0 i a Y ! f.L q.g.j s 5 $ v n h } 5 7 i f C p J y 6 d p ;.m.m e ",
"% & f | k w & >.f K 2 = s e p C } d g / u g >.&.8 w./ e %.q p w o & f ^ h e ; >.f K 2 ; e 8 p k C g g ) e h :.&.8 9.o.y >.q d 0 ",
"e t 6.h w i r ; a g $ w K O.! y u v g f E - N C.f H d w v   6 z.f t O.n e p r - 9 h * g V f W e e W h f C 5 V A.h J i w n   6 q.",
"K l.^ g w t K m v 7 5 v Z r h 0 7 5 h c v y 0 5.K.C * i &.r c h.O.;.` R d q ^ &.v r 5 v h r V d w 5 g ! ) y w | J.h * i &.y h h.",
"p a h q.p 5 c c 6 8 s.K 0 d &.d ; V &.C 7 h g a h.g f c ` $.e g f a h K d 0 c c 6 y u.f w f K 7 d u &.f 7 ; i h f.C d n | %.y s ",
"d w w ! ; i E $ w d e.V g W f f ; p d i p :.f h i % n w.U j 7 c s 6 w n 5 d c $ 6 f g.V g W f = r h d y d | C i p # n w.U h ; c ",
"d C w g 9 h C.Z ; C 5.&.d v p ; a h u 5 d V V d d B / m.r Y g.< p C r x 9 g S.Z ; C 7.W d R d 5 p p w 8 h 4.V y d d / m.7 Y w.5 ",
"5 e w ; 5 d i.x.C / d 9 7 7.h.7 c G.q.y d r r i n B - ) d h C 4 5 e w ; 5 p u.Z.E / d 9 7 O.C.7 W 1.# 7 g r r a c V - ) f C h 6 ",
"7 y % 7 Z / w &.h.r 7 4 g.Z.C C f S.1.h s V * c s.$ ; y g h C 9.6 5 % 7 Z ^ w &.f.r 7 4 g.Z.C C V G.f 6 h V * h f.$ - y g h f f.",
"s 8 y d 5 >.w K V 6 i f s.A.C [ 7 d c c s v * n a % 5 V c s C B h 8 y d r m w K K 8 w f g.t.C } 7 d W v h c % n a % 6 f c d C C ",
"g 2 E , > ! 6 i = v R - w.) e y ; 6 $.1 1 %.i.i w a i e J p w d h 2 ! , > ! 9 y w m C - d.R y y 5 5 i.1 0 >.M w w s i d J d 6 d ",
"d d h D / K i 2 9 >.C d E d C 8 r d m r s p p.2 3 3 5 E >.9 5 d 8 d c K | j i < 3 >.C y E d f y , g m ; g d p.2 3 3 5 h 1.6 5 d ",
"&.K f v / j f g d w h 9 5 h i.h r p a E / V 5 h i g i h i.i u C v } d z | Z j d 1 i C 9 5 f p.n r d a n C d w h i x d C f.9 d C ",
"h K w 7 a.u f | f e u.f r E a s K ^ r # 7 U r C u w C.d 5 6 6 / h J w 7 a.p y f 0 y i.g 0 ! a a K O.0 * 5 g p K u 0 C.d 1 6 5 / ",
"6 t C i h r W 8.u >.8.g = 1 K g c h 0 e = . i v 1.# U O.X w Z N 5 N C d h u ; V E 7.8.g $ w h y v K > e = 5 f c e.= f V # e Z V ",
"f r j.- + } 8.D c J r 7 6 g h z s f h e r c.k.y | e Z r d | Z g C t j.- + u f / R J y 0 5 c d d s h h y , s Z f ^ y u ; d &.Z f ",
"$.6 f t ; h.K 7.n i i y 7.m.s & p c c 6.K f.L O.e.f d q d 4.; h W 6 u y $ n >.O.i w d p #.n.n d 5 i v K k E > ` e.f ) e f 4.& s ",
"&.l & f v g.G h ^ p f p %.p 5 + e d 0 k h w 5 q.K e ` k d 4.! f &.l & j ^ | e ^ p g h y %.e d e o > e m n d 0 #./ u n j e / ! f ",
"f E g 5 a g.^ i h > e e s Z j f O.e y g y e q K k + j 0.p f | d e &.g 7 K f 0 s p , 5 i )   6 q.u q K i e e q h g # j #.8 f | y ",
"r y v 5 y h 2 n j s h 0 g j n s.| l.#.d y s p n >.d z.K + g h w 7 y E < 6 k i y * d w i 9.y c V.O.l.8.i e k f k n d z.K # a g d ",
"E C h f 5 a h u 0 s h c ` c y h p i C N.p p n $ q >.d D : C J ; C K h f 7 g V f r i y c ^ &.y g f a E m.y s h & q :.f D : h / 7 ",
"r R f S f i } / 0 w f 1.f f 5 c h 8 5 z.f y d > 6 i 5 s ) c f ; r c g G d i } / p o u g.p 7 5 c s w 5 z.f y d > 1 i 5 s ) c u , ",
"8 7 0 w.%.5 d m 5 f n d * G g.% i C 5 h ^ d h Z s.i e b d R f 5 i 7 r 9.>.5 p m ; = n.E 5 w E 5 i J ; c | d h Z s.i y v d n d 0 ",
"i.:.+ 7 #.0 6 h i >.d i y 5.c ; 5 e c 5 d v ` D C.k 1 a r 7.h.r v 1.+ 7 >.r 5 h p ;.d 7 2 v / 5 5 e x 5 d v ` D V.k & a 0 O.S.0 ",
"V G.h 6 i C w + k :.c C : C E 9.8 ; 5 a h w d E Z p w - g.Z.C C V G.C 1 y ! 9 + K p.c n i - d d.y 5 ; g c w d J k e y 5 t.Z.C &.",
"5 d &.m s v & # O.) v V ; C / C s i # 7 v p u n i t c a >.t.C } 5 d &.v i h 5 # / E v v 7 p w s g i # 7 c p u n e w n d w.M.C w.",
"= 6 M 1 1 %.i.$ ; E 1.f R | - 8 d g C * a c 0 y d 5 y 8 &.} y y 5 2 >.5 2 f d - 5 E 1.f C >.5 8 d i C - x v 0 w y v h : 1.R y y ",
"r g n , h p s.i 2 6 g 8.K V V d B d w 0 C c i w y w H 8 E d g y , a n 5 h K C 3 2 6 g 8.K V V d x B 0 r h j d 2 9 $.C d E d g 8 ",
"t p a E K V 5 h a a i C g y f C g C p y J j f y y G C 9 5 f p.n > f a E h C h d p a d g d r d C d K d w K f K i 5 w i 9 5 h s.n ",
"C K y # w S r h u 0 F.p 1 6 ; s 6 V g y a.u h h : J $.h r ! a a K J y * 5 d f ^ u 0 h.n i d y d 6 Z g y b.f u ` 5 w >.g r E p i ",
"c V r w = . y ) 1.& K d # y t d w y B i g r i.| y | 0.g * 6 V d v K q w = $ f >.1.# Z M.i e r p i y d d h y 0 >.j C w.g = 6 h e ",
"a h k p > c.z.e ` y e ; 5 e.F n C 5 d % = C E 5.=.J 8 7 7 c p p z f k y > :.l.y ` w G , % | 0 ) C 5 d # = V d K >.} 7 7 6 c d f ",
"w i g O.! f.L e.g.f p 0 # c n s =.8 * 4 e d d O.d 6 d p | n.) e 0 i v I C a.L q.x.j i 5 5 c k h $.7 5 d f C i J y 6 d p o.:.m y ",
"% $ f o.h 7 ; >.j K w ; s e p C } g p n ; i #.g 6 s.o.w >.q p y + & w n k w ; >.h ^ i ; c s s C } d g E y s p.7.8 9.o.w 1.j h 0 ",
"e t O.h w p r ; a f * 8 ! I } d e v R K 7 r h 9 7 U i 6 v   6 q.f t f p y p r ; 3 c r 5 K G } d y R g f / - u N.V / i 1 i.V f #.",
"^ 1.^ a w q K m v w 5 v Z r d 0 w y h K c 6 y c m f ; i >.y c V.O.;.e.g 5 u ^ m v 8 8 v K r d y w w n C v y r &.K.h * y $.f n a.",
"u a n x.y 1 R c 5 d i.C 7 d / i d K k d C u.i p g v g n K ) w g d a C J p e v h 8 w i.J r d / d h K ! v 5 - d z h.g f v | ! e s ",
"i 6 w C i s y ; 6 f x.f g i.h , N h e h >.>.E e f 1 n n h w - c h w 6 ! 5 g h $ 8 f x.f d v C y 7 h s &.$.! V d s # n w.U g : h ",
"i D 5 c D.5.d e d V >.E E 8 ; d 6 d V V >.r V f f d ! &.g r / i i C r g 3 s C.S ; C 5.&.d R p ; i 5 r d D.g.N d f d } m.7 Y g.1 ",
"5 e 6 0 c - B h R G e g 5 + >.R R C.f ; h r N i c B ; E d h e ; 6 e i ; r d >.t.C / y i w > 8.r $.w.+ 5 C N r i c V = R d C h 7 ",
"7 y % r V 5 + u.&.y 6 8 6 f D.f V F.f 6 g V * h p.% 5 8 a c 5 y W y # 7 Z ` w $.g.7 6 4 g.7.C C V G.g w g N * h f.% - y p h d f.",
"g y 8 g ; 0 < R S 8 d V u.d.d 7 f g &.v a v * c a % 7 V ) y i h } y 6 i r m i j C y d i &.g.C 5.7 g W m s c % v p % 6 V v g C C ",
"g 2 ! t = a a y 5 7 e 6 f.E % ; r 2 i.& 5 :.i.i w a i e J f 9 B d 5 ! , > ! 3 y i g B 5 E c y y ; 6 i.1 0 %.i.i e a i d J e 8 d ",
"d d h j | } 2 2 2 d S 8 C f g e , a m , s d p.2 2 i 5 c >.9 5 d 9 i c h ^ K y 2 6 :.C d ! d g w r d n ; g p :.2 2 i 5 h >.w 5 d ",
"R E d v | Z e h i K E 8 5 h p.n t e a ! C 7 1 j p a d C u.9 e C R / f c / j j y w i h 8 5 h p.k t d a ! C d i f a d y ! f.9 d C ",
"h J 0 7 a.p u k d e i.g r K a a J / y + g h.r f ` d f >.i i V C E C w 7 b.y h ) ; e u.g r C a a K K y $ 5 d p d j u h i 2 5 5 } ",
"w N g d h r $ ;.n f 9.C * 5 h i v V t 1 w 9.h w h.&., k y h J f 7 t C d h r } g.w C 8.g * 6 h i v K q w * = d n 7.= u p @ w S N ",
"f r j.- * C i K w./ 7 8 5 v d d z f h p 5 y R >.K h / + - s.Z g h r j.- + ! C K >.J y 7 7 c p u s f h e q h K f ` i f > g >.Z u ",
"v 9 N t ; h.} J y 6 d e 7.m.n d 5 i g 7.K h 5 w G s i.; 0 5.> h i.6 u y ; h.s J y 6 p u o.p.m p 5 p g Y o.&.> ` t.f >.y f / & h ",
"} l = f v g.O.e 5 g.#.e $.q p w # & f ` d ^ 1.8 f u n K f / n f ) l & j M ` q f 6 s.^ e >.u y w o ; f | h i 0 @.^ u n K y O.` d ",
"f ) g 5 a g.| a w J d 6 W   6 8.f t 6.h 0 s K i c = p q.f p 4.d e &.g 5 c f 5 z i J d 5 &.u y ^ p t 6.h w y 0 K g # f 7.f p 5.e ",
"r y n 5 0 h 6 d * i 5 w >.y c C.O.;.^ i e i 6 > h c 1.I + s h y 7 y c 5 0 c i e * w 4 w &.C m b.O.;.^ i e s u k n f z.I # g g d ",
"E C h V 7 a f f r d p n ` ` y s f a C M.d p h & q m s K : C J ; C ! h g 7 g V d 7 i h n ) ) y s f a c M.e s c & q :.f D : h / 7 ",
"r R g Z d i ` | d X t g.d f 7 h s 6 7 x.f e d > 1 i 7 s ) c p ; r h p D i 6 / 8.e 5 k 1.f y ; h h 8 5 z.f u d > 1 i 5 s ) c u , ",
"2 7 r 9.%.1 d m & = n.c # G g.% i D 5 n ` s C Z i.i e v g E d 5 8 g C C >.w i z e f >.E w y E 1 p J 5 h &.d h Z f.i w c g u.p 7 ",
"i.1.+ 7 | 0 w h p s.p 8 y / c 5 5 y g 5 d c ) D V.k & g 5 7.j.5 v D.7.y / y s f.p | d y i v E 4 5 e a 2 d E ) D m.s 5 g ; ; s.r ",
"f G.g w i C w X k p.c J , C | 9.8 5 - g c w d J Z p w - g.Z.C C u g.K.1.5 V p j | n c c 5 g [ 9.8 5 5 8 p d p J K p e 6 p y >./ ",
"r g $.m g v ; $ O.n c f = C C C h i # 8 c p u n e y K f s.A.C } 7 y &.m s v % ; m g v h = K | C s d $ ; h s e m e r v p h i.C 8.",
"= 6 i.5 0 m i.$ ; E e.g E / * 8 i g C = a v 0 y s 5 N 5 w.) y N 5 6 m & 2 ` i.% 5 c 1.V E } * y d g g : x c 0 y y d d 5 c c y y ",
"r i v 7 g d p.3 2 6 g 9.C K V g h d 7 0 h h i 7 u 6 H 8 E p g y r i m r h p :.i 2 6 g 8.C f 8 d E 8 7 y h h d 2 9 v f d } f B 8 ",
"t d i n J f 5 j a g w h g y V C d c p w J f j d y U E 9 5 f p.n , e i n J V 5 h p a w g g y g g d K p w G j f p y d B 9 1 f f.n ",
"K J p # y U y h u 0 F.f 5 6 5 g 7 S f 6 c.f f g r [ E 8 y E i a / O.d # y 4.r k u 0 F.f 6 0 1 h 6 Z g 7 p.f h h r K c w u E i i "
};
