/* XPM */
static char *_3ea5c765a3844d8f8a9359c41a6b722TiafYoBYmDQFV3L8[] = {
/* columns rows colors chars-per-pixel */
"64 64 256 2 ",
"   c black",
".  c #0000A8",
"X  c #00A800",
"o  c #00A8A8",
"O  c #A80000",
"+  c #A800A8",
"@  c #A85400",
"#  c gray66",
"$  c gray33",
"%  c #5454FC",
"&  c #54FC54",
"*  c #54FCFC",
"=  c #FC5454",
"-  c #FC54FC",
";  c #FCFC54",
":  c gray99",
">  c #ECECEC",
",  c gainsboro",
"<  c #D0D0D0",
"1  c #C0C0C0",
"2  c #B4B4B4",
"3  c gray66",
"4  c #989898",
"5  c gray55",
"6  c #7C7C7C",
"7  c gray44",
"8  c #646464",
"9  c gray33",
"0  c #484848",
"q  c gray22",
"w  c #2C2C2C",
"e  c #202020",
"r  c #FC0000",
"t  c #EC0000",
"y  c #E00000",
"u  c #D40000",
"i  c #C80000",
"p  c #BC0000",
"a  c #B00000",
"s  c #A40000",
"d  c #980000",
"f  c #880000",
"g  c #7C0000",
"h  c #700000",
"j  c #640000",
"k  c #580000",
"l  c #4C0000",
"z  c #400000",
"x  c #FCD8D8",
"c  c #FCB8B8",
"v  c #FC9C9C",
"b  c #FC7C7C",
"n  c #FC5C5C",
"m  c #FC4040",
"M  c #FC2020",
"N  c #FC0000",
"B  c #FCA85C",
"V  c #FC9840",
"C  c #FC8820",
"Z  c #FC7800",
"A  c #E46C00",
"S  c #CC6000",
"D  c #B45400",
"F  c #9C4C00",
"G  c #FCFCD8",
"H  c #FCFCB8",
"J  c #FCFC9C",
"K  c #FCFC7C",
"L  c #FCF85C",
"P  c #FCF440",
"I  c #FCF420",
"U  c #FCF400",
"Y  c #E4D800",
"T  c #CCC400",
"R  c #B4AC00",
"E  c #9C9C00",
"W  c #848400",
"Q  c #706C00",
"!  c #585400",
"~  c #404000",
"^  c #D0FC5C",
"/  c #C4FC40",
"(  c #B4FC20",
")  c #A0FC00",
"_  c #90E400",
"`  c #80CC00",
"'  c #74B400",
"]  c #609C00",
"[  c #D8FCD8",
"{  c #BCFCB8",
"}  c #9CFC9C",
"|  c #80FC7C",
" . c #60FC5C",
".. c #40FC40",
"X. c #20FC20",
"o. c #00FC00",
"O. c #00FC00",
"+. c #00EC00",
"@. c #00E000",
"#. c #00D400",
"$. c #04C800",
"%. c #04BC00",
"&. c #04B000",
"*. c #04A400",
"=. c #049800",
"-. c #048800",
";. c #047C00",
":. c #047000",
">. c #046400",
",. c #045800",
"<. c #044C00",
"1. c #044000",
"2. c #D8FCFC",
"3. c #B8FCFC",
"4. c #9CFCFC",
"5. c #7CFCF8",
"6. c #5CFCFC",
"7. c #40FCFC",
"8. c #20FCFC",
"9. c #00FCFC",
"0. c #00E4E4",
"q. c #00CCCC",
"w. c #00B4B4",
"e. c #009C9C",
"r. c #008484",
"t. c #007070",
"y. c #005858",
"u. c #004040",
"i. c #5CBCFC",
"p. c #40B0FC",
"a. c #20A8FC",
"s. c #009CFC",
"d. c #008CE4",
"f. c #007CCC",
"g. c #006CB4",
"h. c #005C9C",
"j. c #D8D8FC",
"k. c #B8BCFC",
"l. c #9C9CFC",
"z. c #7C80FC",
"x. c #5C60FC",
"c. c #4040FC",
"v. c #2024FC",
"b. c #0004FC",
"n. c #0000FC",
"m. c #0000EC",
"M. c #0000E0",
"N. c #0000D4",
"B. c #0000C8",
"V. c #0000BC",
"C. c #0000B0",
"Z. c #0000A4",
"A. c #000098",
"S. c #000088",
"D. c #00007C",
"F. c #000070",
"G. c #000064",
"H. c #000058",
"J. c #00004C",
"K. c #000040",
"L. c #282828",
"P. c #FCE034",
"I. c #FCD424",
"U. c #FCCC18",
"Y. c #FCC008",
"T. c #FCB400",
"R. c #B420FC",
"E. c #A800FC",
"W. c #9800E4",
"Q. c #8000CC",
"!. c #7400B4",
"~. c #60009C",
"^. c #500084",
"/. c #440070",
"(. c #340058",
"). c #280040",
"_. c #FCD8FC",
"`. c #FCB8FC",
"'. c #FC9CFC",
"]. c #FC7CFC",
"[. c #FC5CFC",
"{. c #FC40FC",
"}. c #FC20FC",
"|. c #FC00FC",
" X c #E000E4",
".X c #C800CC",
"XX c #B400B4",
"oX c #9C009C",
"OX c #840084",
"+X c #6C0070",
"@X c #580058",
"#X c #400040",
"$X c #FCE8DC",
"%X c #FCE0D0",
"&X c #FCD8C4",
"*X c #FCD4BC",
"=X c #FCCCB0",
"-X c #FCC4A4",
";X c #FCBC9C",
":X c #FCB890",
">X c #FCB080",
",X c #FCA470",
"<X c #FC9C60",
"1X c #F0945C",
"2X c #E88C58",
"3X c #DC8854",
"4X c #D08050",
"5X c #C87C4C",
"6X c #BC7848",
"7X c #B47044",
"8X c #A86840",
"9X c #A0643C",
"0X c #9C6038",
"qX c #905C34",
"wX c #885830",
"eX c #80502C",
"rX c #744C28",
"tX c #6C4824",
"yX c #5C4020",
"uX c #543C1C",
"iX c #483818",
"pX c #403018",
"aX c #382C14",
"sX c #28200C",
"dX c #600064",
"fX c #006464",
"gX c #006060",
"hX c #00001C",
"jX c #00002C",
"kX c #302410",
"lX c #480048",
"zX c #500050",
"xX c #000034",
"cX c gray11",
"vX c #4C4C4C",
"bX c gray36",
"nX c gray25",
"mX c gray19",
"MX c #343434",
"NX c #D8F4F4",
"BX c #B8E8E8",
"VX c #9CDCDC",
"CX c #74C8C8",
"ZX c #48C0C0",
"AX c #20B4B4",
"SX c #20B0B0",
"DX c #00A4A4",
"FX c #009898",
"GX c #008C8C",
"HX c #008484",
"JX c #007C7C",
"KX c #007878",
"LX c #007474",
"PX c #007070",
"IX c #006C6C",
"UX c #980088",
/* pixels */
"< , < 1 , < < > 1 > , < < 2 # 4 5 6 8 vX$ 5 # 5 < : > : : : > : : > : : , < : : < 1 1 < < 5 0 5 < : > < 1 6 vX$ , , < , < < 1 1 ",
"1 2 1 2 1 < < , < , 1 2 # 5 8 0 mX0 MXbX5 5 # 1 > < 1 : : : : : : : < , 1 : > < 2 1 2 # # 0 $ 4 , , , # 4 6 q L.6 1 2 1 # # # 2 ",
"# # # 4 1 2 # # # 4 6 5 8 0 mX8 $ $ nX8 7 4 1 < < # < 1 2 < < < , > , > , < 4 # # 4 6 7 7 nX6 1 : , , 2 # 5 nXe nX< , 2 2 1 # 4 ",
"6 5 6 5 6 7 5 6 5 6 $ MXq 8 5 < # 7 6 8 8 7 7 6 6 4 2 < , > < < < 1 , , > , # 4 5 8 8 0 q 8 4 , > < > , 1 5 bXe L.4 4 5 2 5 5 6 ",
"7 8 7 7 bX6 7 8 $ L.mXnX5 5 < > < 2 # 4 7 8 q q 8 5 5 # 1 , 1 < < # # 6 6 6 7 7 8 vX0 0 MXq 2 1 2 # , , # 4 6 0 e vX4 4 5 6 7 8 ",
"0 nXL.e w q q mX0 q $ 2 , < > < < , > > 1 5 0 L.w mX0 0 8 7 4 # 5 5 4 # 7 8 0 L.  e vXbXL.5 < # 4 2 < 1 # # 4 bXe cX0 8 6 8 $ nX",
"8 bXvXbX8 vX8 q nX$ 5 , < 4 , > , 1 < 1 1 < # 7 0 MXMXe MX0 $ $ $ $ $ nXL.cXw q 0 7 # e w 1 # 5 # 2 2 < 1 1 # 7 0 e cX0 $ q w $ ",
"2 # # # # 4 6 8 $ $ 6 2 1 < 1 2 2 < 2 < : > 1 2 6 7 0 q nXMX0 0 e e w $ 8 8 5 1 < # 5 L.0 1 4 4 # 1 , < # 4 5 5 6 0 e L.w q $ 5 ",
"2 1 < 1 1 2 5 5 7 q nX6 4 4 4 # 2 1 < , < 2 1 1 1 4 6 q q vX8 8 8 7 5 4 # < < 1 1 5 5 L.7 1 4 4 1 < 2 2 # 4 # 5 5 7 q w $ 6 4 # ",
"4 2 1 < < 1 2 8 8 0 q 8 6 7 5 5 4 # 2 # 1 2 < < < 5 6 0 0 q $ bX7 6 < < < > , < 2 5 6 cX7 # # 1 2 # 5 6 6 5 4 5 5 6 MXmX5 5 # 2 ",
"# 2 5 4 # # 5 5 7 7 $ MX$ 7 5 5 4 # # 2 < 1 < 2 2 5 6 mXe q 5 # > , , 1 1 2 # 2 4 6 $ e # # 1 # # 4 5 4 4 5 5 7 7 7 w 0 5 4 2 # ",
"# # 4 2 # 4 4 4 6 7 $ q 0 8 5 5 2 1 # 1 1 # # 4 4 6 $ e nX6 # 2 1 2 < 1 # 4 2 # 6 6 w q # 4 4 5 7 7 8 7 7 7 7 8 7 $ L.0 4 4 # 4 ",
"# 4 4 4 5 4 # 5 6 8 7 $ q bX5 6 4 5 4 # 5 5 5 7 6 bXw mX6 # 4 # < 1 # 5 5 5 # 5 6 7 cXMX7 8 8 8 7 7 8 $ 0 7 8 vX$ L.L.bX4 # 4 4 ",
"# 5 5 5 5 4 5 5 5 8 5 $ q vX6 7 5 6 6 7 7 8 7 7 8 q L.8 4 1 2 < 1 5 6 4 6 6 5 5 6 8   w $ $ 8 7 $ MXmXe q 0 0 0 q L.e vX7 5 5 4 ",
"5 8 7 7 8 6 5 5 6 8 8 bXw MX8 8 8 vX$ vXnXMX0 0 MXe $ 7 5 1 1 1 4 4 # # 5 7 7 8 $ nX  cXq MXe w L.w mXMX$ $ $ $ vXq L.vX6 # 4 5 ",
"$ 8 6 7 7 7 bX7 7 7 7 8 0 w nXq q MXq L.cXcXe cXcXL.$ 6 # 4 4 5 5 4 # # 4 7 7 8 8 $ cXe q w w nXq 7 6 5 # # # 5 6 $ mX0 6 5 7 7 ",
"4 6 6 8 7 7 7 5 6 6 7 vX0 e vXbX8 8 8 8 vX8 8 $ 0 w $ 7 5 5 2 4 # 5 5 5 6 8 $ 8 8 w cXcXMXq 8 4 # 2 # 4 4 6 5 5 6 mXMX0 7 7 bX6 ",
"5 8 7 6 8 8 8 8 7 8 $ L.mX$ 7 6 4 # 1 2 5 # 4 5 7 q q $ 6 6 5 8 7 5 5 4 8 8 8 6 q e L.q $ 5 4 # 5 6 8 bX7 6 5 8 7 nXL.MX8 8 5 5 ",
"5 7 5 5 6 6 8 $ 8 vXmXmX8 5 4 2 2 4 # 4 # 2 4 5 5 8 mXL.$ 8 5 5 # 6 5 7 $ 8 q q MX0 5 4 5 4 5 5 7 5 6 6 5 5 5 5 7 0 w w $ $ 6 6 ",
"6 6 6 8 8 bX$ vX0 w MX8 7 5 2 # # 4 # 5 5 5 6 5 5 8 q L.q bX$ 8 7 6 8 vXnXMXq MX8 5 4 5 5 5 7 8 8 7 7 6 6 8 8 bX$ 0 w e q 8 7 7 ",
"8 $ 8 bX8 bX0 q cXq 8 6 # # 4 5 5 5 4 5 5 6 8 7 7 7 6 nXMXq 7 6 8 8 MX0 q q $ $ 4 5 4 4 5 7 7 7 6 5 5 6 8 6 6 8 vXvXq e mX0 $ 8 ",
"$ $ vX$ $ vXw cXe $ 7 6 4 6 6 6 7 6 7 7 7 8 8 7 6 4 # 8 q mXMXq mXmXq vX0 nXbX8 4 5 5 5 6 8 8 $ 8 7 6 5 5 6 8 nX0 $ 0 mXL.q 8 8 ",
"0 q w cXcXcXcXmXmXbX5 5 5 6 7 7 7 8 8 8 8 $ 8 7 5 # # 5 8 $ 0 cXcXL.e nX0 0 0 6 6 6 7 8 8 bX8 bX7 5 5 6 7 8 $ $ $ bX0 L.cXw 0 MX",
"L.  L.MXMXmXq MXq $ 6 6 7 7 8 8 8 7 5 7 7 7 7 6 5 5 5 6 5 7 $ q q MXmXmXw 0 0 6 6 5 5 5 6 7 8 8 7 7 7 6 7 $ $ $ $ $ vXe cXcXw mX",
"$ 6 5 6 7 $ q L.L.MX6 5 5 7 7 7 4 4 4 5 6 6 7 8 6 6 5 6 6 7 6 8 $ bXvXq L.mXw bX8 bX7 7 8 8 8 8 8 8 7 7 $ vXbX$ vXq mXcXcXe 0 8 ",
"5 4 5 4 4 5 7 $ w cX$ 7 7 6 7 6 6 6 5 5 5 5 7 6 5 4 4 4 5 5 5 7 0 8 $ $ q e e $ 5 6 5 6 7 8 bXbX7 7 7 6 bX$ 8 bX$ q cXe MXvX7 8 ",
"7 5 7 5 6 6 6 7 7 MXe nX6 8 8 6 7 6 6 6 5 6 7 8 7 7 6 5 5 5 6 7 8 7 6 6 $ L.cXL.6 7 7 7 bX$ 8 8 8 $ 8 7 bX$ $ 0 q e e q 8 7 6 7 ",
"6 6 8 7 7 7 6 6 7 $ cXL.0 7 7 7 6 6 6 5 5 6 7 7 6 6 5 5 5 6 5 7 6 8 8 8 8 q e cX$ 8 7 8 $ $ 8 $ 7 8 8 8 7 $ $ $ MXcXmX0 8 8 8 7 ",
"7 8 8 7 8 8 7 8 8 $ q cXL.q $ $ 8 6 5 6 5 6 5 5 6 6 5 6 7 7 6 7 7 7 8 5 5 bXMXcX$ 8 bX$ $ bX8 8 7 $ 8 8 8 0 nXe L.mX0 $ 7 7 6 8 ",
"8 vXnXnXmXq MXMXq 0 vXmXw cXMX$ $ $ 8 7 6 6 6 6 7 6 6 6 6 8 7 7 7 7 vX8 8 $ q L.q 8 $ bX8 7 8 8 $ 0 bX$ $ 0 mXcXcXq 8 6 7 7 8 8 ",
"0 mXnX$ $ 8 bX8 $ 0 $ q MXe cXe q q 8 8 7 7 6 6 8 $ vXbX7 7 6 bX8 8 0 7 6 7 vXL.L.$ $ $ 8 7 8 bXbX8 8 bX8 $ q cXcX0 8 8 8 $ 0 $ ",
"nXvX$ 8 vX8 8 7 8 7 7 bX$ nXcX  q q nX0 0 q q q vX8 6 6 5 6 7 7 6 7 $ 8 6 8 $ mXe q $ bX7 8 $ bXbX$ 8 8 vX0 0 w L.vX8 8 $ nX0 w ",
"7 bX8 bXvXbX$ 8 7 7 7 7 8 0 MXcXcXq 0 0 0 $ bX8 7 6 7 8 6 6 7 6 7 7 8 8 6 8 bX0 cXe 0 0 $ $ bX$ $ 8 8 8 $ $ 0 e L.$ $ $ 8 bX8 bX",
"7 7 8 8 $ bX$ 8 8 8 8 8 7 7 nXe   e q 0 $ 8 6 5 6 5 7 5 6 6 7 7 7 bXbX$ $ bX8 0 cXcXMX0 $ $ bX$ 8 bX$ $ 0 0 MXe q $ 8 8 8 8 7 8 ",
"8 8 8 8 $ vXq q nXvX0 8 bX$ nXq   cX0 $ bX$ 8 7 8 7 6 7 7 8 7 7 8 8 bXvX8 8 bX0 e cXe q MXq q 0 0 vX0 vX0 q L.e q 0 $ bX8 8 8 8 ",
"8 8 8 $ bXbX$ bX$ 0 nX$ $ 8 $ 0 e   0 $ 6 7 7 7 7 8 8 $ $ $ bX$ $ $ 0 $ $ vX0 0 e cXcXw w q q MXMXMXw mXmXe cXw $ 7 7 8 8 8 8 8 ",
"$ 7 8 bX8 8 $ bX$ $ $ 0 0 $ $ 0 nXcXe 0 8 7 8 8 8 vX$ 0 0 0 0 0 0 0 0 0 MXMXq q cX  cXcXe w w MXMXMXw MXe cXe 0 $ 8 8 bX8 8 8 8 ",
"8 $ $ 8 7 6 bX7 8 7 8 bX0 0 0 q q e cXq $ 8 8 $ $ vXnX$ 0 vX$ vX0 nXnXq MXmXw cXcXcXcXcXe e e w w MXmXmXe cXe $ 8 7 8 8 8 8 8 bX",
"$ bX8 8 8 $ $ 8 $ 8 bX8 $ nXq q mXmXcXMX$ $ $ nXMXq vX$ $ vXvX0 nXq MXMXe cXcXe mXMXnXq MXmXL.e w e e e   cXw 0 $ 8 vX$ $ vX0 $ ",
"vX$ vXvX$ vX$ $ vX$ $ 8 $ $ vXq mXw e cXq 0 0 MX0 $ $ $ 7 $ $ 0 q MXMXe cXe MXmX8 8 8 bXq nX0 MXq L.L.e cX  e $ $ 8 vX$ $ vX0 0 ",
"q 0 nX0 0 q q 0 0 $ bX8 $ $ $ vXnXe mXcXcX0 q MX0 0 0 $ bXnXmXL.mXw e cXe mX0 8 8 8 bX$ bX7 7 8 $ 8 8 nXmXcXe 0 0 $ 0 $ 0 q MXnX",
"w mXmXq q 0 0 $ vXbX$ $ vX$ $ 0 nXmXmXe cXe q nX0 q nX0 MXw mXMXL.cXcXe q $ 7 7 $ vX0 $ bX$ $ $ bX8 bX$ $ MXe q nXq nXq nX0 0 0 ",
"0 nXq nXnX0 0 $ 0 $ 0 $ $ $ 0 nXq w MXq cXcXmXmXw mXmXL.L.e cXcXcXcXL.0 8 8 $ $ q $ bX8 bX$ $ $ $ $ $ 8 8 MXL.e q MXq q 0 0 0 $ ",
"nX0 0 $ $ 0 0 $ nXvXvX0 nXnXnXq MXw MXnXe   e w mXmXmXe cXcX  cXe e w 8 bXq q 0 $ 8 bX$ bXvX$ vX$ $ $ $ $ $ q L.cXmXmXmXnXvX$ vX",
"q q q 0 q q 0 0 0 0 q MXmXw w mXe L.MXMXe   cXmXmXmXmXcX  cX  cXL.w mX$ $ vX$ $ bX8 bX$ $ 8 8 $ 0 0 vX0 $ $ q L.cXcXmXMXq nXnX0 ",
"mXw w w mXmXmXw mXe e e e cXcXe cXcXcXcXcXcXcXe e e cXcXcXw L.e L.cXcX0 0 q vX$ $ $ 0 $ $ $ 0 w MXq MXq nXq q q w cXcXe MXq w q ",
"cXcXcXcXcXcXcXcXcXcXcXcX  cXcXe cXe e L.e w w e e e e e mX0 vXnXmXL.e MXvXq mXmXq q 0 8 8 $ q q 0 nXnXq q q MXq w e cXcXcXcXcXe ",
"e w L.cXcXcXcX  cXcXcXL.MXMXq q q 0 0 vX0 q nXMXcXe w q q $ q nX0 L.L.e MXmXnXq q q q 0 q mXw nXq L.w e L.cXcXe cXL.e cXe mXw w ",
"0 vX0 nXe e cX  e e q vX0 0 vX$ $ bXvXvX$ nXMXe cXe w nXvX$ vX0 q MXq e cXcXcXw mXMXw mXmXq e L.L.e cXe cXcXcXe e q q 0 0 mXMX0 ",
"0 vX0 $ q q mXcXcXcXq nXq vX0 $ $ $ $ bXbX0 q cXcXMXnX$ $ vX$ vX$ $ 0 MXL.cXcXcXcXMX0 q q e cXcXe e w q nXq nX0 $ $ 0 vXMXw $ $ ",
"$ $ $ 8 0 $ q q cXcXcXL.q 0 vX$ vX$ $ $ 0 w e cXw MX0 vXbX0 vXvX$ $ nXnXMXe e   cXe MXMXmXe e cXmXq 0 vXvX0 nX0 0 0 nXq w 0 vX$ ",
"vXnX0 vX0 vX0 0 w e cXcXe mXq 0 vX$ 0 q nXe cXe MX0 $ $ 0 0 8 8 bXvXvX$ nXvX0 cXcXcXe e e e e e w MXMXq q q 0 vX0 0 q mXMX0 vXvX",
"0 0 vX$ $ vX$ vXq q L.cXcXe nXnX0 0 0 0 w cXcXMX$ 0 0 0 0 $ 0 0 q MXnX0 $ $ $ mXe cXcXcXcXmX0 $ $ $ $ vX0 0 MXmXq q w nX$ 0 0 0 ",
"q MXq nX0 0 $ $ $ nXq cXcXcXw mXq q q w cXcXMXvX0 0 0 0 0 $ nX0 q MX$ $ $ $ 0 MXL.e cXcXL.vX0 0 $ $ $ vX$ MXe e L.q 0 $ $ nXnXq ",
"q q q MXq 0 0 0 0 0 nXMXcXcXcXq q MXMXe cXL.0 $ vXnXq q nX0 q mXw nXvXvX0 0 0 q L.cXcXe q MXnX$ $ 0 vXnXmXmX0 $ q 0 nXq MXmXmXnX",
"q MXq q nXq q 0 vX0 nXnXe cXcXw q L.e cXe MX0 0 MXq q q 0 q w e q q vXvXvXvXq mXL.cXcXw vX$ $ vXvX0 nXw MXvXvX0 L.w nXnXnXq w 0 ",
"q q w MX0 0 0 $ 0 $ $ mXMXe cXcXMXL.cXcXL.q q q q 0 0 MXw L.mXq q 0 $ vXvXnXMXL.cX  cXmX0 0 0 $ $ 0 mXq 0 0 q MXq L.mXq q nX0 0 ",
"vX0 0 vX$ q q 0 q 0 0 nXq L.cXcXL.cXcXL.MX$ $ 0 0 0 nXq mXmXMXMX0 vXvXq q MXe cXcX  cXq nXq nX0 q L.e w L.L.e e e e L.nX$ nXq 0 ",
"q 0 0 0 0 q nXq q 0 0 0 0 MXcXcXcXcXe q vX$ $ 0 0 vXq mXmXMXMXnX$ 0 q q MXe cXcXcXe cXL.q q q q L.e L.L.L.w L.w L.e L.0 0 vXvX0 ",
"nX0 nXq q MXw w q 0 q nXmXmXcX  cXw MX$ $ 0 nX0 0 nXMXmXw q 0 $ vXq nXq e cXcXcXL.cXcXcXMXL.e cXe mXq MXMXMXq q mXe mXMXnX0 nX0 ",
"0 q mXMXmXw MXq 0 q MXMXw e cXcXcXvXq vX0 vX$ 0 nXMXmXw w nX0 q nXnXq e cXcXe MXMXL.cXcXcXe L.w mXq MXMXnXq q q 0 w 0 mXq q nXq ",
"q mXmXmXMXq MXq q MXMXmXe cXcXmXq $ 0 $ $ 0 nXnXMXw mXL.q $ nXq q mXcXcXcXe 0 $ nXq w cXcXe w e mXq nXnXq q 0 0 MXMXq mXq nXq MX",
"L.w w L.w mXw q MXL.L.e cXcXL.0 vX0 0 q nXq q mXw MXq w nXnXmXw mXcXcXcXe q 0 q MXq q cXcXcXL.MXmXMXnXq 0 vXq q mXMXnXnXL.L.q q ",
"q q mXw mXmXMXq q mXmXcXcXL.nX0 vX0 vXq q mXL.w mXMXmXq 0 q q q w e cXw 0 0 0 q 0 0 q MXcXcXcXMXmXq MXq vXnXnXnXq 0 nXq e w mXmX"
};
