/* XPM */
static char *_738f316ef9c4b7188ff766797784f3blcz7l4q0k6yRHmDi[] = {
/* columns rows colors chars-per-pixel */
"64 64 232 2 ",
"   c #1F5299",
".  c #18579B",
"X  c #174693",
"o  c #264B8D",
"O  c #2A4C8B",
"+  c #254787",
"@  c #324F8C",
"#  c #34548D",
"$  c #38568E",
"%  c #264C93",
"&  c #2D4E91",
"*  c #264792",
"=  c #2D5394",
"-  c #2E549B",
";  c #2B599D",
":  c #255298",
">  c #335594",
",  c #385694",
"<  c #355996",
"1  c #3D5B96",
"2  c #32569A",
"3  c #3E559C",
"4  c #355B9B",
"5  c #3D5C99",
"6  c #26558E",
"7  c #3E6096",
"8  c #36639E",
"9  c #3D629D",
"0  c #3F6B9F",
"q  c #1E57AA",
"w  c #285CA1",
"e  c #335DA2",
"r  c #3C5CA1",
"t  c #3955A0",
"y  c #2C63A4",
"u  c #3462A3",
"i  c #3C64A3",
"p  c #3D6AA4",
"a  c #3B66AA",
"s  c #3D6CAA",
"d  c #366AA9",
"f  c #396CAF",
"g  c #405D96",
"h  c #405D9A",
"j  c #416196",
"k  c #42639C",
"l  c #4B6B9E",
"z  c #48679B",
"x  c #536E9F",
"c  c #435DA2",
"v  c #4156A0",
"b  c #4364A4",
"n  c #4964A5",
"m  c #446AA5",
"M  c #4B6CA3",
"N  c #4565A9",
"B  c #4965A9",
"V  c #436BAA",
"C  c #4B6CAB",
"Z  c #516FA5",
"A  c #536CAC",
"S  c #4E70A6",
"D  c #4472AC",
"F  c #4C73AC",
"G  c #4B79AE",
"H  c #5574A6",
"J  c #5274AC",
"K  c #537AAD",
"L  c #5B7BAC",
"P  c #5B76A6",
"I  c #4B6EB1",
"U  c #446CB2",
"Y  c #4C73B3",
"T  c #4C7AB1",
"R  c #4577B1",
"E  c #5475B3",
"W  c #547BB2",
"Q  c #5B7DB3",
"!  c #5C7EBA",
"~  c #5677B6",
"^  c #637CAD",
"/  c #627EB3",
"(  c #637BB7",
")  c #5D82B5",
"_  c #5C83BB",
"`  c #5884B7",
"'  c #5F82AD",
"]  c #6482AE",
"[  c #6A83AE",
"{  c #6484B5",
"}  c #6B85B4",
"|  c #6C8AB4",
" . c #6385B9",
".. c #6985BB",
"X. c #658ABB",
"o. c #6B8CBB",
"O. c #6588B6",
"+. c #738CB5",
"@. c #718EBB",
"#. c #7389B2",
"$. c #6E91BE",
"%. c #7B92B6",
"&. c #7392BC",
"*. c #7B95BD",
"=. c #7D9ABE",
"-. c #7590B7",
";. c #6789C1",
":. c #718CC1",
">. c #6C93C2",
",. c #7494C2",
"<. c #7B95C2",
"1. c #7C9BC4",
"2. c #7E9CCA",
"3. c #7594C7",
"4. c #8296BB",
"5. c #859BBD",
"6. c #8A9CBE",
"7. c #8094B7",
"8. c #8BA1BE",
"9. c #92A3BF",
"0. c #839DC3",
"q. c #8A9EC3",
"w. c #839DCA",
"e. c #889FCF",
"r. c #8B9ECB",
"t. c #86A1C5",
"y. c #8CA3C4",
"u. c #85A1C9",
"i. c #8BA4CA",
"p. c #8FA8CC",
"a. c #8DA9C7",
"s. c #93A4C4",
"d. c #96A9C6",
"f. c #9BABC6",
"g. c #92A6CA",
"h. c #93ABCC",
"j. c #9BADCB",
"k. c #98A7C1",
"l. c #9DB2CC",
"z. c #97B0CD",
"x. c #8BA1D1",
"c. c #96ACD1",
"v. c #9AAED1",
"b. c #92A6D2",
"n. c #9CB2D2",
"m. c #99B2D8",
"M. c #A2ADCB",
"N. c #A0AEC7",
"B. c #A3B3CC",
"V. c #A9B6CD",
"C. c #A7B8CE",
"Z. c #ABBACF",
"A. c #A6B0C6",
"S. c #A3B5D3",
"D. c #ABB6D2",
"F. c #A5B9D4",
"G. c #ABBBD3",
"H. c #A3B6D8",
"J. c #A6B9D9",
"K. c #ACBDDA",
"L. c #B2BDD4",
"P. c #B1BEDB",
"I. c #B5BFCD",
"U. c #B0BFE0",
"Y. c #AFC0D6",
"T. c #AEC1DA",
"R. c #B4C2D4",
"E. c #BAC5D6",
"W. c #BBC9D7",
"Q. c #B4C4DB",
"!. c #BAC5DB",
"~. c #B6C9DC",
"^. c #BDCBDC",
"/. c #B5C4E0",
"(. c #BCCBE2",
"). c #BDCCE8",
"_. c #B6C8E2",
"`. c #BFD1E5",
"'. c #C3CDDC",
"]. c #C4CBDC",
"[. c #C6D2DD",
"{. c #CBD4DE",
"}. c #CFD9DF",
"|. c #D1D7DE",
" X c #D1D9DE",
".X c #C3CEE2",
"XX c #C5CFE6",
"oX c #C4D2E4",
"OX c #CBD5E3",
"+X c #CDDAE5",
"@X c #C4D3EA",
"#X c #CBD6EA",
"$X c #CDDAEB",
"%X c #D3DCE4",
"&X c #D9DFE4",
"*X c #D3DCEB",
"=X c #D8DFEA",
"-X c #D0D7E8",
";X c #CFDBF2",
":X c #D3DFF2",
">X c #D6E1E5",
",X c #DBE3E4",
"<X c #D6E1EB",
"1X c #DBE4EC",
"2X c #DEE9EC",
"3X c #D5E1F2",
"4X c #DCE5F2",
"5X c #DEE9F4",
"6X c #E2E6E6",
"7X c #E3E9E6",
"8X c #E1E5EC",
"9X c #E3EBEC",
"0X c #E9EDEA",
"qX c #EAEFE7",
"wX c #ECF1ED",
"eX c #E6F0EF",
"rX c #F3F5EC",
"tX c #FBFBEE",
"yX c #E4ECF3",
"uX c #E9EEF4",
"iX c #E3ECF9",
"pX c #E6EBF4",
"aX c #E6F2F3",
"sX c #ECF2F4",
"dX c #ECF3FA",
"fX c #E6F0FC",
"gX c #F2F6F5",
"hX c #F3FAF4",
"jX c #FEFFF3",
"kX c #F1F6FB",
"lX c #F3FAFA",
"zX c #FEFFFE",
/* pixels */
"1 1 5 h 1 h 5 5 < 5 4 < < 5 > 2 j.4X$X<X(.G.j.n.p.n.(.~.o.< E N > Q Q F n O.J n 0.H.D.~.Q.F.n.p.i.{ 9 1 g 5 1 5 g 1 g g 5 5 5 g ",
"5 h g 1 g g 1 5 5 < 2 5 < > 4 D w.K.`.Q.T.H.v.S.T.Q.).T.) r 4 5 h M 9 1 1 z 5 H F.+XOX_.F.h.n.c.h.o.< , h 1 h 1 5 h g h 1 g 1 1 ",
"5 5 g g g 1 1 g 1 5 i 5 < i n K Q O.{ ^ s.K.K.Q.Q.R.K.c.&.F , 1 g , 1 3 < @ 4 r.+X2XoXh.u.h.i.u.o.m 1 1 h 5 1 g g 1 g 1 g 5 g g ",
"g g 1 5 1 1 1 1 1 z J & c X./ b N O.t Z d.S.Q.~.T.S.h.i.<.H 1 1 5 5 g g 5 @ @.uX9X`.n.,.t.F.3.Y N i 1 5 5 h 1 1 5 h 1 5 3 g 1 1 ",
"1 g 1 1 g 1 1 1 1 , k 4 J M t J O.A 2 #.~.oX^.Q.S.j.v.h.p.K , 1 g g g g g , { B.j...{ X.u.n.&.V V 7 5 5 < h 5 5 h < g 1 5 1 g , ",
"g 1 1 1 g 1 9 k b > N 1. .* - i.o.= M S.>X9XQ.a.i.i.p.u.O.b , 5 5 1 g g g h > = > > > 5 S O.J 2 2 < 5 4 5 < 5 5 h 5 1 1 g 1 > > ",
", > * > 5 4 2 r { C @.J.,.) i.n.Q O.~.9X>X_.a.,.h.n.X.F s 5 1 g 1 1 h 1 1 h 3 > , 1 1 1 > > > 9 7 > , < < 7 5 5 5 1 k k 2 % Z H ",
"W C @.O.N b r C Q Q i...a.1XhX>X~.n.H.(.c.,...$.c.p.` V b 4 1 g 5 g h 5 g 1 5 1 g 5 5 5 5 < k H O.K i 5 < < 4 7 < , i d V j.aX(.",
"`.~.lX$X) E { F = C m K +XaXaXoX<.V m F V b Y ) o.,.m e 4 > 5 g g g 5 3 g 9 1 > < < h h > 9 o.K | y.J b 4 4 4 ; 4 : V 1.Y.sXaX<X",
"2XF.h.p.K 4 e b z.h.O.~.2X+XoX1.u K i % ! X.Q F o._ r , 3 5 g 5 5 g 5 5 5 , z M 3 5 h , k L S k L &.L F F r V C F ,.F.2X+XoXT.~.",
"h.$.m 4 - N { F.aX+X1X$Xn.K.T.F - C i V ) C C ) O.m 4 , , 1 g g h h 1 5 5 , M { M < 4 < z M 4 k 0.l.J 8 m p D *.,.{.0X+X`.<X2Xz.",
"p p a e - w.~.`.n.i.2.i.` K $.G a r X.1.a X @.t.e % 4 4 < 9 g 3 g 5 5 < 1 < 9 < z z 1 j 7 9 k b S @.S 8 0 p K *.q.&X7X,XeXaX+XX.",
"p u w ; X.T.&.T V ; ; p u ; e Q ` W F.c.W o.n.@.C F F @.o.5 , g 5 1 , 5 < 5 C j 7 F M j 9 k m m 5 4 0 8 d p C O.B.0XwX,XW.z.X.p ",
"K W *.n.Q.~.Q.O.e W ) F V V p ..{ 1.i.1.~.wXsX9X*X<Xn.<.p.M # g O * 2 2 < 7 k 9 k F F m m i 9 0 p 0 p F m F 5.l.{. X{.W.a.h.n.G ",
"..a.+X$XF.z.2X+XT.9XaX1.Q )  .a a Q a h.lXzXzXzXzXsX1Xj.3.E - * M <.<.J i 4 - 4 ~ C r V m m i 9 8 J j.6X X X>X[.^.~.R.j.<.*.1.O.",
",.g.w.O.) i.~.eX+XJ.T.,.V V d X.z.F t.wXzXzXzXlX8X+X(.Q.v.p.h.i.2XzX(.Q Y ..<.,.W d a V m 0 8 8 m ) j. XjXjX XR.W.W.B.*.O.i w O.",
"Q.w...m { ~.T.n.p._ V a d V &.9XhX1XzXjXgXuX,X+X-XOXF.~.aX1X9XjXzX2Xa.O.i.eX8X3.Y W Y W F m J @.$.D $.C.>X X[.].R.a.{ E i / i.Q.",
"P.w.K.D.S.^.h.d V V s w { ^.<XwXjXzXuX0X0X=X].].{..X^.OX>X2XsXjXhX+X.X*XeXhX+Xi.1.1.o.F 0 ) y.{. XW.}. X[.,X,X X%Xh.E V ( $XzXzX",
"r.c.Q.=XT.u.F a u a u V T.~.H.oXgXsX&X{.{.%X|.{. X6X%X=XOX%X1X,X{.'.+XOX[.Q.G.Q.l.d.5.{ K D +.[.wXrXqXwX0X7X7X%X,XC.N b.kXzXzX(.",
"C B ~ ( ,.O.b N F Q 1.F.(.1.n.>X1XwX&XI.E.,X6X&X%X1X1XOX^.OX[.Q.F.l.Y.Z.l.l.j.t.t.1.&.O.&.d.0.R.6X X{.,X XqXqXW.R.D.j.uXzXlXe.;.",
"C c c t r n c J @.K.OXoX2.3.+X0XsX7X|. X|. X X[.].OX.X^.%X6X&X[.l.z.C.F.n.z.l.q.{ F L *.l.R.C.{.W.d.l.O.O.F.W.C.Q.~.OX.XH.:.I Q ",
"b B B c c h c ~ ,.n.u.X.$.Q.oX9XzX6XI.E.W.L.K.G.C.R.].{.6X%X{.[.T.l.l.F.n.h.n.t.) D p { E.0XqXjXtX{.L.) V F K y.{.~.^.D.b.P.c.B ",
"C I n 3 h c B A K ` R s t.oXOX,X%XL.B.S.Q.oXOX8X=X_.D.!.%X7X X[.R.T.T.n.h.i.u.&.W D s D t.C.R.{.wXjXtX{.F.W.C.d.R.V.v.L.=XfXiXw.",
"E C c c v c v c N a D _ i.G.^.D.h.h.c.n.>XhXwXhX0X1X$X+X,X,X>X}.,X^.a.z.j.1.o.) T R D d R F ' t.E.rX7XqXwXjXjX[.C.R.L.G.XXXXJ.:.",
"I C B v 3 r h v B N D W ,.c.T.n.j.v.p.v.~.OX1X,X+X9XhXjXjX7X}.,XrX>Xl.G.F.) G R R D ` -.{ ) 8.W.>X XW. X,X>X,X%X$X1X2XoX@X/.3.I ",
"A C n N c c c c c N a V a E u.n.h.,.T  .t.h.J.+X>XoX>XrXtXqX7X>X+X>X>X%X^.=.D R D D d.>X'.C.R.'.{.W.R.'.}.W.R.%XaXdX@Xm.2.;.f f ",
"a I B N c c c h c I :.! a e a ..W R D y W c.h.h.Y.oX+X+X>X7X,X[.R.G.W.G.t.X.s s s R O.h.R.t.=.R.}.[.Z.l.R.{.>X}.OX$XoX$XH.;.3.I ",
"e.I e N N B c v B :.J...;...e 2 e D T w w >.i.i.Y.T.F.H.Y.{.{.C.s.O.` ) ' K G s D ) o.{ =.8.o.o.d.C.l.R.{.7XjXqX].Q.$X8XuXkXzX#X",
"kXU.3.~ ! B B E E ..( A A ( ( t c b N a e s u.*X+XT.K.l.d.S.Y.R.R.y.1.T D =.L.d.y.y.N.B.f.=.G G G ` $.R.^.%XqXrXtXwX,X9XlXzXzXzX",
"kXzX/.r.2.N I I B n h h c B A c t 3 v ~ I u ) c.2.$.>.3.Y.W.W.W.W.j.W d ) d.'.[.W.G.C.C.Z.=.R =.a.8.Z.C.a.d.d.l.'. X}.+XyXuXdXyX",
"dXzX$Xx.e.Y I I A n n c n c 3 h h t c B b c e e 4 2 - V h.d.1.o.L J   m d.C.C.R.^.}.OX%X>XW.B.k.A.R.Y.R.[.Y.y.G.~.C.j.D.(.oX$XsX",
"zXzXaXv.;.I U U B I A n A n r c c A E v A I c r 9 i 5 5 i 9 2 2 = = - O.L.R.C.G.}. X%X%XW.l.W.R.C.C.C.[.qXeXW.Y.[.~.R.T.Q.(.(.sX",
"yXiXiX*XJ.e.Y ! ~ I C N N N N N A E n N B N b b 9 k h k 4 5 1 < - > 4 O.i.G.D.^.].^.R.R.f.9.l.T.z.` X.l.W.[.R.Y.Y.W.}.~.~.~.`.2X",
"*X*X*X4XyXiX*XuXfXb.Y a N B N B B N B N k b c h k g j g j 7 5 < 4 u p W W j.^.W.N.M.Z.N.f.f.8.' G y . y ` ` O.=.` =.R.R.}.[.^.`.",
"(.4X4X8XuXhXzXzX:Xc.;.U a N U N B C C b 5 b h 9 7 g h j 5 g g , 2 8 D K C.[.[.R.C.I.C.k.9.d.8.=.=.| 0 . X . =.1.d ` %.=.~.z.Y.+X",
"_ _ (.sXgXsXlX4XK.3.;.e.3.~ Y ;.Y N N b b 9 9 b k 7 j h g 5 g 1 = s t.D.R.E.W.W.Q.I.N.N.d.8.d.[. XW.Y.8.` ' D s 0 y ' =.z.a.1.1.",
"w U @XzXhXlXyX:X:X#X*XdX;Xx._ ! Y I Y N N m m i i k k j 7 1 1 < 8 K d.f.d.D.B.j.R.R.B.d.+.8.f.E.[.Y.[.}.R.O.p u   m H.sXeXhXQ.f ",
"! @XsXyX1X<X4X$X#X:X5XyX_.3._ T Y ~ ! I b b C  .M r k j 1 7 z 0 | f.l.s.B.L.L.'.oXA.6.L +.8.d.f.C.l.8.z.[.a.R y t.gXzXzXzXzXzXu.",
"OX8X$X.XE.G._.).$XOX`.`.T.x.u.;._ ! Y T  .~ c.^.Q 5 k < 9 ] P H f.R.V.M.C.^.[.%XR.y.8.#.%.s.l.G.[.W.C.8.C.>X7XeXeXhXhXhXlXlX5X`.",
"1X@X.X!.k.%.h.(.@XoX.XoXoXT.z.1.~ W W ) ) t.OXF.C 9 k b -.9.%.5.A.G.^.E.R.W.^.'.W.Q.C.Z.Z.R.*.5.[.B.l.A.l.W.,XwX>X{.>X5XdXdX5XyX",
"<X$XS.L ] *.S.T.H.c.Q.`.Q.`.~._ F  . .F W T.j.W m b 9 S -.Z.Z.d.y.j.B.'.+XoX^.R.~.-X].L.{.].L 7 } f.k.B.M.d.N.Z.^.OX*X3XfXdX4X3X",
"$X^.%.7 H j.).J.u.i.m.n.>.>._ D _ F D O.1.2.` W m 9 9 k 4.E.9.H S [ 5.{.>X.Xh.-.L.[.E.W. Xl.j 4 7.R.C.N.f.f.Z.L.E.oX;X4XpXiX*XOX",
".XG.#.] q.S._.H.c.T.2.` d s T o.X.T R X.>.Y a m b i p p L [ k m S %.}.eXB.7.5.j.^.'.'.OX{.s.P +.d.B.V.B.B.L.Z.Z.E.OX-X4X4X*X.X'.",
"L.B.C.G.D.K.P.U.H.1.R w F n._.n.` d s _ F 5 b 5 b j j k 9 8 ; H f.[.[.^.s.9.E.+X'.R.^.R.V.F.L.L.A.M.j.k.f.B.B.B..XOXOX$XoXQ.D.R.",
"d.-.5.d.g./.@X;X@Xw.d o.K.@XoXm.` O.o.Y N 9 b 9 j g g j j 7 < L E.Z.5.N.].'.'.[.R.R.R.Z.V.G.D.V.C.R.V.s.k.f.Z.R.]..X.XXXL.s.5.4.",
"-.p 6 M v.@X@X_./.T.1.j./.Q.T.p.m.3Xm.; 9 k h j k h 1 7 j 7 7 ] 5.9.4.-.R. X].f.9.B.+X+XR.G.L.R.W.{.'.G.Z.L.E.R.'..X(.!.G.d.L.y.",
"< 6 #.v.K.P.U.H.n.n.F.S.D.H.p.b.H.K.,.D a c k k 5 1 5 5 7 4 < P H ^ l P R.E.^ j %.[.8XI.d.6.4.I.+X{.].D.Z.].E.].]..X!.L.V.f.Z.*.",
"l 7..X).S.v.v.c.i.q.h.n.S.n.h.j.u.1.1.` 5 h j 1 5 1 h 1 5 9 z 7 $ O 7 [ [ P j l y.].5.1 g Z ^ %.V.g.^ *.P.-XE.!.OX{.E.!.'..Xy.k ",
"k.%X#XD.D.n.i.r.q.w.i.j.p.a.n.S.g.0.:.W h 1 j k 1 1 g 5 5 1 j j $ g H 1 O @ $ 1 l 1 O # @ g #.[ n ^ l M s.D.!.L.E.].L.V.].].L.L ",
"oX1XoX!.P.v.j.g.0.y.j.F.n.F.K.J.R.0.,.@.z 1 7 j j k 1 g 1 > g 1 @ g z $ $ O + O + O + O @ O g P > > O m M.I.].].].L.{ F / D.-X.X",
"=XXX!..XP.D.D.J.c.1.:.0.!.+X.X^..XM.q./ 5 k 9 7 j 1 > & > 5 1 1 $ $ # O + x T.T.#.+.o.J.y.1 @ # 7 2 H +X%X].|.|.].s.h e b .XkX=X",
"!..XOX].D.D.v.v.!./.H.n.-X-XD.S.s.s.V.6.> 5 = O O o n m } ^ O > k 1 < j [ [.kXfX5XdXzXzXdXq.> # 7 L ].zX6X=X.X]..X].L.D.q.L.!.D.",
"L.].I.f.f.M.M.!.-XyX-XS.D...^ g.( 5.].A.P H 0.c.1.&.D..XD./ 9 , O + h.sX4X`.;X3X:X5XzXdX3Xc.i , = M M.D.!.*XXXOX8XuXyXuX=XD.6.s.",
"k.A.9.[ #.4.L.=XOX!.#.= : K s.V.D.L.D.M.} *.kXzXzXdXOX-X#X.X:XT.H m *XzX5X3X@X_.K.T..X).n.t.K < + k z ^ D..X$X8X9X].=X.Xs.q.D.g.",
"*.{ l 5 4 ^ L.-X{.L./ A -.].E.]..XL.L.L.B._.8X-X$X=X=X#XXX4XfXzX5X@X4X3X$X`.Y.d.d.d.A.8.m M 9 > d._.<.D.=XXX1XuX8XL.L.q.+.S.g.( ",
"( a O 2 } q.f.-X1X&X=X=XpXOXL.!.]..X].!.pXzX=XL.].4X3X).).(.$XiX$X@X@X_.l.d.k.Y.W.z.5.' @.6.*.D.;X5XiXiX=X9X'.D.j./ #.} J o.B B ",
"4 5 m z y.D.!.uXkXkXkX-X=X-XP.L.OX].M.XXkXuX=X=X:X;X@XQ.`.`._./.T./.oX).K.D.y.=.G.T.u G 5XaXiXiXoX#X;X@X1X=X=.2 / %.K r 2 4 2 k ",
"g 9 F M q.8X*XL.h.!.uXL.]..XL..X=XOX*XsXkX=X].].$X;XoXoX@X_.T.T._.oX@X.X)._.u.) Q.lXn.$XzXdX8X3X3X).Q.S.P.~.*.9 O.0.m O k C 5 , ",
"5 , > > H M.*.Z 6..XXXP.D.M.L.-XuXlX9XyX8X-X$XOX+X*X).OX(.K.S.J.Q.Q.Q._.(.(.~.OX*X*XkXzXlXgXsX8X$X(._.J.v.q.L V @.-.N / Q 5 5 1 ",
"h 5 1 5 , 3 ^ *.k.M.M..XD.M.].-XuXOX(..X:XuXiX-X[..X.X`.v.h.n.n.F.K.T./.(.OXoX$XiX5XpXkXlXzXhXuX:X`.@XL.u.Q 8 9 L y.{ L M , 5 h ",
"h 7 1 k 1 > z L A y.L.!.M.q.M.v.M.Q.$X_.@XpXdX:X^.~.oX_.h.<.y.h.Q.oX(.F.S.~..XOX3X3X4X3X4X4XyXiX;X).H.0.K 4 7 7 < C H < , 5 h 1 ",
"1 1 g 1 1 h , O 5 } +.{ Z , 5 C Q <.'.2X3X4XiX>X^.F.D.(.Q.1.{ n.2X+XF.u.1.l.J.J._.#X*X.X.X:XpX4X;Xb.D p k 1 5 1 1 > < 1 5 1 1 g ",
"5 1 1 5 g 5 9 5 , , > > = < & u 1.S.oXdXyX=X(.Q.n.0.v.+XoXh.J ..z.<.L Q ..t.a.<.j.!.~.^.oX$X*X@Xn.O.p < 1 1 1 h 1 , h h 1 1 1 1 ",
"g h 5 1 5 h < < 4 5 1 1 < 4 = b n.pX>X2X=XoXF.c.$.3.~.$XY.) r - 4 4 r Z K Q ..H *.K.L.~._.P.G.v.<.K 9 1 1 1 h 1 h 1 1 g 1 1 h 5 "
};
